<svg width="99.4" height="41.2" viewBox="0 0 99.4 41.2" xmlns="http://www.w3.org/2000/svg"><g id="svgGroup" stroke-linecap="round" fill-rule="evenodd" font-size="9pt" stroke="#000" stroke-width="0.25mm" fill="black" style="stroke:#000;stroke-width:0.25mm;fill:black"><path d="M 34.72 22.88 L 34.6 22.92 A 1.453 1.453 0 0 1 33.816 22.118 A 1.908 1.908 0 0 1 33.8 22.08 Q 33.64 21.92 33.44 21.8 L 33.04 21.56 A 7.875 7.875 0 0 1 32.957 21.587 Q 32.793 21.64 32.76 21.64 Q 32.52 21.64 32.44 21.52 A 0.413 0.413 0 0 0 32.362 21.41 A 0.344 0.344 0 0 0 32.2 21.32 A 0.027 0.027 0 0 0 32.186 21.302 Q 32.13 21.26 31.84 21.18 A 18.381 18.381 0 0 0 31.225 21.02 A 16.608 16.608 0 0 0 31.14 21 Q 30.863 20.935 30.785 20.923 A 0.188 0.188 0 0 0 30.76 20.92 Q 30.68 20.88 30.44 20.64 L 30.12 20.32 Q 30.022 20.287 29.724 20.255 A 10.226 10.226 0 0 0 29.58 20.24 Q 29.216 20.205 29.047 20.201 A 1.738 1.738 0 0 0 29 20.2 A 0.501 0.501 0 0 0 28.969 20.201 Q 28.849 20.208 28.92 20.28 Q 28.76 20.04 28.56 20.04 A 0.422 0.422 0 0 0 28.481 20.077 Q 28.403 20.123 28.311 20.21 A 1.682 1.682 0 0 0 28.28 20.24 A 0.402 0.402 0 0 1 28.061 20.352 A 0.573 0.573 0 0 1 27.96 20.36 A 0.574 0.574 0 0 1 27.739 20.319 Q 27.579 20.253 27.48 20.08 A 0.587 0.587 0 0 0 27.339 19.911 Q 27.201 19.8 27 19.8 A 1.03 1.03 0 0 0 26.916 19.803 Q 26.818 19.811 26.76 19.84 Q 26.637 19.901 26.561 19.916 A 0.226 0.226 0 0 1 26.52 19.92 A 0.426 0.426 0 0 1 26.457 19.916 Q 26.305 19.893 26.351 19.746 A 0.361 0.361 0 0 1 26.36 19.72 L 26.04 19.72 Q 25.706 19.72 25.094 19.778 A 29.572 29.572 0 0 0 24.68 19.82 A 7.007 7.007 0 0 0 24.228 19.883 Q 23.789 19.96 23.513 20.081 A 1.381 1.381 0 0 0 23.36 20.16 Q 22.84 20.48 22.3 20.98 A 18.259 18.259 0 0 0 21.797 21.463 A 13.268 13.268 0 0 0 21.36 21.92 Q 21.16 22.16 20.94 22.38 L 20.52 22.8 L 19.64 23.68 L 18.8 25.36 Q 18.4 26.24 17.84 27.04 L 17.44 27.68 L 17.04 28.32 Q 16.88 28.64 16.68 29 Q 16.48 29.36 16.28 29.68 Q 15.16 31.6 13.72 33.44 Q 12.28 35.28 10.28 36.32 A 0.272 0.272 0 0 0 10.257 36.321 Q 10.169 36.329 10.24 36.4 Q 7.76 38.32 4.68 38.32 Q 3.2 38.32 2.14 37.56 Q 1.08 36.8 0.54 35.54 Q 0 34.28 0 32.84 Q 0 31.92 0.24 31.04 L 0.72 29.28 Q 0.759 29.241 1.045 28.727 A 48.711 48.711 0 0 0 1.06 28.7 Q 1.36 28.16 1.74 27.64 A 4.995 4.995 0 0 1 1.875 27.463 Q 2.15 27.12 2.28 27.12 A 0.165 0.165 0 0 1 2.369 27.143 Q 2.432 27.182 2.453 27.288 A 0.513 0.513 0 0 1 2.46 27.34 Q 2.48 27.56 2.48 27.64 A 10.89 10.89 0 0 1 2.295 29.598 A 13.728 13.728 0 0 1 2 30.86 Q 1.52 32.56 1.52 34.24 Q 1.52 35.336 1.845 36.075 A 2.498 2.498 0 0 0 2.32 36.8 A 2.409 2.409 0 0 0 3.242 37.389 Q 3.622 37.53 4.093 37.592 A 6.057 6.057 0 0 0 4.88 37.64 Q 6.32 37.64 7.56 36.92 A 11.861 11.861 0 0 0 9.282 35.731 A 14.289 14.289 0 0 0 10.04 35.06 A 15.494 15.494 0 0 0 11.923 32.894 A 17.531 17.531 0 0 0 12.24 32.44 A 40.958 40.958 0 0 0 13.191 30.986 A 37.552 37.552 0 0 0 13.22 30.94 Q 13.68 30.2 14.12 29.44 Q 14.6 28.6 15.12 27.58 A 92.317 92.317 0 0 0 15.866 26.084 A 82.718 82.718 0 0 0 16.1 25.6 Q 16.549 24.663 16.865 24.031 A 58.681 58.681 0 0 1 16.88 24 A 0.027 0.027 0 0 1 16.894 23.982 Q 16.955 23.938 17.28 23.84 A 0.875 0.875 0 0 0 17.418 23.798 Q 17.487 23.771 17.534 23.733 A 0.259 0.259 0 0 0 17.64 23.52 A 0.182 0.182 0 0 0 17.628 23.453 Q 17.609 23.404 17.559 23.377 A 0.235 0.235 0 0 0 17.52 23.36 A 0.263 0.263 0 0 1 17.446 23.33 Q 17.373 23.285 17.362 23.193 A 0.285 0.285 0 0 1 17.36 23.16 A 0.755 0.755 0 0 1 17.396 22.935 Q 17.426 22.84 17.48 22.74 A 2.161 2.161 0 0 1 17.566 22.595 Q 17.61 22.528 17.653 22.475 A 0.97 0.97 0 0 1 17.72 22.4 L 17.72 22.16 Q 17.684 22.088 17.681 21.95 A 1.189 1.189 0 0 1 17.68 21.92 A 1.431 1.431 0 0 1 17.792 21.373 A 1.877 1.877 0 0 1 17.92 21.12 A 13.002 13.002 0 0 1 18.059 20.824 Q 18.178 20.579 18.28 20.4 Q 18.32 20.32 18.56 20.08 Q 18.725 19.915 18.754 19.832 A 0.098 0.098 0 0 0 18.76 19.8 Q 18.76 19.707 18.719 19.654 A 0.162 0.162 0 0 0 18.64 19.6 A 0.352 0.352 0 0 1 18.576 19.578 Q 18.542 19.562 18.52 19.54 A 0.136 0.136 0 0 1 18.48 19.44 A 0.043 0.043 0 0 1 18.488 19.419 Q 18.513 19.377 18.622 19.293 A 2.313 2.313 0 0 1 18.64 19.28 Q 18.718 19.202 18.739 19.162 A 0.119 0.119 0 0 0 18.74 19.16 Q 18.76 19.12 18.8 19.08 Q 18.854 18.973 18.854 18.884 A 0.265 0.265 0 0 0 18.84 18.8 A 0.126 0.126 0 0 1 18.828 18.759 Q 18.818 18.683 18.88 18.56 Q 19 18.28 19.36 18.16 Q 19.672 18.082 19.68 17.7 A 0.97 0.97 0 0 0 19.68 17.68 A 1.059 1.059 0 0 0 19.667 17.509 Q 19.641 17.348 19.56 17.24 A 0.413 0.413 0 0 1 19.638 17.13 A 0.344 0.344 0 0 1 19.8 17.04 A 0.258 0.258 0 0 0 19.917 16.853 A 0.377 0.377 0 0 0 19.92 16.8 Q 19.92 16.76 19.84 16.6 L 19.76 16.44 L 19.76 16.32 L 20.12 15.52 A 2.736 2.736 0 0 1 20.277 15.195 A 3.096 3.096 0 0 1 20.32 15.12 A 2.867 2.867 0 0 0 20.486 14.801 A 2.553 2.553 0 0 0 20.52 14.72 Q 20.76 14.16 21.1 13.24 A 32.14 32.14 0 0 0 21.517 12.035 A 38.517 38.517 0 0 0 21.76 11.26 A 32.963 32.963 0 0 0 22.121 9.974 A 27.633 27.633 0 0 0 22.3 9.24 A 11.888 11.888 0 0 0 22.416 8.675 Q 22.513 8.131 22.52 7.736 A 3.407 3.407 0 0 0 22.52 7.68 A 0.537 0.537 0 0 0 22.514 7.604 Q 22.502 7.521 22.467 7.404 A 2.888 2.888 0 0 0 22.44 7.32 A 0.771 0.771 0 0 1 22.375 7.14 A 0.653 0.653 0 0 1 22.36 7 A 0.711 0.711 0 0 1 22.385 6.824 Q 22.432 6.643 22.565 6.398 A 4.208 4.208 0 0 1 22.68 6.2 Q 23 5.68 23.3 5.14 A 3.919 3.919 0 0 0 23.438 4.869 Q 23.6 4.515 23.6 4.28 A 0.127 0.127 0 0 0 23.597 4.258 Q 23.587 4.206 23.542 4.066 A 8.346 8.346 0 0 0 23.52 4 L 23.32 4 Q 23.224 4 23.153 3.974 A 0.318 0.318 0 0 1 23.12 3.96 L 22.64 3.96 A 1.731 1.731 0 0 0 22.342 3.988 Q 22.034 4.043 21.64 4.2 A 18.387 18.387 0 0 1 21.206 4.357 Q 21.024 4.42 20.863 4.471 A 8.267 8.267 0 0 1 20.56 4.56 Q 19.76 4.84 18.96 5 Q 18.16 5.16 17.28 5.16 L 17.72 5.24 L 17.72 5.44 L 17.68 5.48 A 1.127 1.127 0 0 1 17.639 5.479 Q 17.455 5.473 17.6 5.4 A 0.137 0.137 0 0 0 17.611 5.388 Q 17.664 5.32 17.48 5.32 A 1.371 1.371 0 0 0 16.968 5.415 A 1.299 1.299 0 0 0 16.76 5.52 A 4.601 4.601 0 0 1 16.46 5.727 A 4.227 4.227 0 0 1 16.44 5.74 A 3.868 3.868 0 0 1 16.12 5.92 L 16.24 6.12 A 0.844 0.844 0 0 0 16.165 6.124 Q 15.983 6.141 15.555 6.225 A 22.193 22.193 0 0 0 15.48 6.24 A 4.708 4.708 0 0 0 15.239 6.294 Q 14.845 6.395 14.72 6.52 L 14.92 6.56 L 13.28 6.92 L 13.28 6.76 L 13 6.84 L 13 6.96 L 13.16 6.92 Q 12.96 7.04 12.96 7.08 L 13 7.08 Q 13 7.12 13.04 7.12 Q 13.24 7.12 13.2 7.08 A 0.041 0.041 0 0 1 13.195 7.075 Q 13.174 7.044 13.289 7.04 A 1.044 1.044 0 0 1 13.32 7.04 A 0.339 0.339 0 0 1 13.588 7.167 A 0.538 0.538 0 0 1 13.64 7.24 A 2.48 2.48 0 0 1 13.555 7.259 Q 13.417 7.289 13.165 7.332 A 29.825 29.825 0 0 1 13 7.36 Q 12.52 7.48 12.36 7.44 L 12.28 7.64 L 12.32 7.72 L 11.6 7.92 L 11.36 7.84 A 7.875 7.875 0 0 1 11.387 7.923 Q 11.44 8.088 11.44 8.12 Q 11.44 8.28 11.28 8.24 L 11.04 8.24 A 0.986 0.986 0 0 0 10.949 8.244 Q 10.76 8.262 10.76 8.36 A 0.191 0.191 0 0 0 10.816 8.496 A 0.25 0.25 0 0 0 10.82 8.5 L 10.92 8.6 L 10.32 8.84 L 10.32 8.72 Q 10.32 8.56 10.36 8.6 A 0.041 0.041 0 0 0 10.366 8.605 Q 10.396 8.626 10.4 8.511 A 1.044 1.044 0 0 0 10.4 8.48 L 10.36 8.48 L 10.08 8.96 L 9.92 8.92 Q 9.96 8.88 10.04 8.88 A 0.032 0.032 0 0 0 10.07 8.86 Q 10.078 8.845 10.08 8.817 A 0.269 0.269 0 0 0 10.08 8.8 L 8.24 9.44 Q 8.2 9.4 8.12 9.4 A 0.146 0.146 0 0 0 8.036 9.423 Q 7.979 9.462 7.965 9.565 A 0.554 0.554 0 0 0 7.96 9.64 L 7.96 9.72 A 0.361 0.361 0 0 0 8.009 9.761 Q 8.065 9.8 8.12 9.8 L 8.2 9.76 A 0.496 0.496 0 0 1 8.227 9.668 Q 8.276 9.55 8.38 9.52 A 0.947 0.947 0 0 1 8.509 9.493 Q 8.605 9.48 8.72 9.48 L 8.64 9.36 L 9.04 9.4 L 8.64 9.64 L 8.68 9.76 L 8.76 9.76 L 9.2 9.44 L 9.16 9.32 L 9.48 9.44 L 8.64 9.92 L 8.56 10.28 L 8.04 10.08 L 7.24 10.72 L 7.28 10.8 L 7.36 10.84 L 7.36 10.8 L 8.12 10.28 L 8.2 10.4 A 1.636 1.636 0 0 0 8.139 10.464 Q 8.084 10.526 8.054 10.574 A 0.358 0.358 0 0 0 8.04 10.6 A 0.421 0.421 0 0 1 8.009 10.651 Q 7.975 10.701 7.916 10.763 A 1.806 1.806 0 0 1 7.88 10.8 L 8.12 10.72 L 6.6 12.16 L 6.44 12.16 L 6.04 12.88 L 5.88 12.84 L 5.28 13.84 L 5.48 13.92 Q 5.426 13.92 5.355 13.938 A 1.033 1.033 0 0 0 5.28 13.96 L 5.16 14.02 A 0.193 0.193 0 0 1 5.115 14.036 A 0.163 0.163 0 0 1 5.08 14.04 L 4.68 14.92 L 4.8 14.96 L 4.68 15.52 L 4.56 15.32 L 4.56 15.36 L 4.64 16.88 L 4.68 16.88 L 4.64 16.48 L 4.68 16.52 A 3.657 3.657 0 0 0 4.818 17.084 Q 4.915 17.373 5.056 17.596 A 1.695 1.695 0 0 0 5.34 17.94 Q 5.84 18.4 6.6 18.66 A 13.834 13.834 0 0 1 7.531 19.018 A 17.24 17.24 0 0 1 8.2 19.32 L 8.24 19.36 A 0.026 0.026 0 0 1 8.226 19.383 Q 8.203 19.397 8.144 19.4 A 0.612 0.612 0 0 1 8.12 19.4 L 8 19.4 A 5.617 5.617 0 0 1 7.226 19.348 A 4.898 4.898 0 0 1 6.94 19.3 A 12.556 12.556 0 0 1 6.292 19.152 A 15.314 15.314 0 0 1 5.88 19.04 Q 4.92 18.8 4.32 18.62 Q 3.72 18.44 3.2 18.14 Q 2.73 17.869 2.032 17.321 A 21.788 21.788 0 0 1 1.88 17.2 Q 1.917 17.2 1.989 17.269 A 0.834 0.834 0 0 1 2 17.28 A 0.703 0.703 0 0 0 2.033 17.311 Q 2.082 17.354 2.112 17.359 A 0.047 0.047 0 0 0 2.12 17.36 Q 2.16 17.36 2.16 17.32 A 0.203 0.203 0 0 0 2.154 17.274 Q 2.135 17.195 2.06 17.06 A 0.625 0.625 0 0 0 2.012 16.986 Q 1.932 16.88 1.84 16.88 Q 1.8 16.88 1.84 17 A 0.504 0.504 0 0 1 1.855 17.024 Q 1.912 17.12 1.84 17.12 Q 1.8 17.12 1.8 17.08 Q 1.76 17 1.72 16.9 Q 1.68 16.8 1.64 16.72 L 1.56 16.56 L 1.48 16.4 L 1.56 16.4 L 1.6 16.36 L 1.6 16.32 A 0.833 0.833 0 0 0 1.588 16.183 A 1.118 1.118 0 0 0 1.56 16.06 Q 1.52 15.92 1.48 15.8 L 1.48 15.88 A 0.18 0.18 0 0 0 1.46 15.904 Q 1.449 15.919 1.445 15.933 A 0.084 0.084 0 0 0 1.44 15.96 L 1.4 15.96 L 1.24 15.08 L 1.32 15.08 L 1.48 13.48 L 1.56 13.48 L 1.52 13.36 L 1.56 13.4 Q 1.8 13.4 1.76 13.12 A 0.365 0.365 0 0 1 1.842 13.06 Q 1.882 13.037 1.932 13.02 A 0.812 0.812 0 0 1 2 13 A 0.532 0.532 0 0 0 2.058 12.982 Q 2.116 12.961 2.141 12.931 A 0.077 0.077 0 0 0 2.16 12.88 Q 2.16 12.84 2.12 12.84 L 2 12.64 A 0.703 0.703 0 0 1 1.969 12.607 Q 1.926 12.558 1.921 12.528 A 0.047 0.047 0 0 1 1.92 12.52 L 2.08 12.56 L 2.32 12.08 A 0.238 0.238 0 0 0 2.333 12.067 Q 2.389 12.001 2.284 12 A 0.344 0.344 0 0 0 2.28 12 A 0.043 0.043 0 0 1 2.249 12.013 Q 2.214 12.013 2.16 11.96 L 2.44 11.92 A 0.919 0.919 0 0 0 2.648 11.726 Q 2.722 11.633 2.785 11.514 A 1.829 1.829 0 0 0 2.84 11.4 Q 3 11.04 3.2 10.96 L 3.28 11.04 L 4.44 9.52 A 0.361 0.361 0 0 0 4.489 9.561 Q 4.545 9.6 4.6 9.6 Q 4.68 9.6 4.72 9.56 L 4.84 9.48 L 4.84 9.52 L 4.72 9.64 L 4.72 9.72 L 5.56 9.28 L 5.6 9.52 Q 5.8 9.52 5.88 9.32 Q 5.92 9.24 5.96 9.14 Q 5.993 9.058 6.026 9.016 A 0.184 0.184 0 0 1 6.04 9 L 5.84 9 L 5.96 8.88 A 0.241 0.241 0 0 0 5.977 8.862 Q 6.026 8.801 5.971 8.766 A 0.127 0.127 0 0 0 5.96 8.76 L 5.32 9 L 5.32 8.92 L 6.44 8.2 Q 6.88 7.92 7.4 7.6 Q 7.862 7.316 8.325 7.316 A 1.506 1.506 0 0 1 8.44 7.32 L 8.44 7.28 Q 8.68 7.08 8.98 6.96 Q 9.28 6.84 9.6 6.76 L 9.6 6.68 L 9.52 6.68 L 8.68 6.8 L 9.68 6.32 L 9.72 6.36 L 11.92 5.16 L 12.04 5.16 Q 12.067 5.187 12.094 5.196 A 0.084 0.084 0 0 0 12.12 5.2 L 12.58 5 Q 13.04 4.8 13.52 4.62 L 14 4.44 L 14.08 4.48 L 16.04 3.88 L 16.92 3.64 A 13.745 13.745 0 0 1 17.231 3.52 A 15.557 15.557 0 0 1 17.34 3.48 Q 17.56 3.4 17.76 3.32 L 18.16 3.16 L 18.56 3 L 18.6 3.04 L 18.68 3.04 A 2.437 2.437 0 0 0 19.097 3.006 A 1.793 1.793 0 0 0 19.52 2.88 A 1.926 1.926 0 0 1 19.97 2.718 A 1.633 1.633 0 0 1 20.32 2.68 Q 21.28 2.68 22.16 2.32 A 5.139 5.139 0 0 1 23.583 1.978 A 4.718 4.718 0 0 1 24 1.96 Q 24.8 1.96 25.7 2.12 A 4.18 4.18 0 0 1 26.559 2.365 A 3.33 3.33 0 0 1 27.24 2.74 Q 27.88 3.2 27.88 4.04 Q 27.88 4.353 27.609 5.208 A 19.753 19.753 0 0 1 27.52 5.48 Q 27.12 6.56 26.52 8.04 Q 25.92 9.52 25.2 11.16 A 84.335 84.335 0 0 0 24.485 12.7 A 77.081 77.081 0 0 0 24.44 12.8 Q 24.08 13.6 23.76 14.36 Q 23.2 15.64 22.58 16.98 A 199.761 199.761 0 0 0 22.294 17.601 Q 21.9 18.46 21.72 18.88 L 21.4 19.6 A 3.85 3.85 0 0 0 21.181 20.23 A 3.514 3.514 0 0 0 21.16 20.32 L 21.16 20.4 L 21.36 20.2 A 1.773 1.773 0 0 0 21.481 20.067 A 1.388 1.388 0 0 0 21.56 19.96 A 1.915 1.915 0 0 1 21.639 19.869 Q 21.851 19.636 22.42 19.1 Q 23.12 18.44 23.92 17.7 A 387.51 387.51 0 0 1 24.298 17.351 Q 24.83 16.86 25.16 16.56 Q 25.6 16.16 26.32 15.52 Q 27.04 14.88 27.64 14.28 A 13.274 13.274 0 0 0 27.845 14.07 Q 28.248 13.65 28.28 13.52 A 0.804 0.804 0 0 1 28.205 13.622 Q 28.068 13.783 27.756 14.054 A 13.052 13.052 0 0 1 27.56 14.22 A 19.905 19.905 0 0 1 26.449 15.08 A 21.916 21.916 0 0 1 26.28 15.2 Q 25.76 15.568 25.45 15.818 A 5.719 5.719 0 0 0 25.28 15.96 A 11.627 11.627 0 0 1 26.08 14.975 Q 26.838 14.133 27.9 13.22 Q 29.6 11.76 31.08 10.48 A 9.689 9.689 0 0 0 31.415 10.2 A 8.835 8.835 0 0 0 31.46 10.16 A 9.468 9.468 0 0 1 31.79 9.88 A 10.385 10.385 0 0 1 31.84 9.84 A 6.283 6.283 0 0 0 32.247 9.441 A 4.898 4.898 0 0 0 32.52 9.12 A 11.234 11.234 0 0 1 32.985 8.554 Q 33.485 7.98 34.215 7.26 A 39.046 39.046 0 0 1 34.46 7.02 A 53.425 53.425 0 0 1 36.187 5.422 A 64.018 64.018 0 0 1 37.32 4.44 A 55.672 55.672 0 0 1 39.231 2.892 A 46.149 46.149 0 0 1 40.34 2.06 A 29.721 29.721 0 0 1 41.036 1.569 Q 41.797 1.049 42.38 0.734 A 7.702 7.702 0 0 1 42.72 0.56 A 6.064 6.064 0 0 1 43.417 0.291 A 7.511 7.511 0 0 1 43.88 0.16 A 5.556 5.556 0 0 1 44.556 0.033 A 4.341 4.341 0 0 1 45.08 0 A 0.569 0.569 0 0 1 45.126 0.003 Q 45.261 0.015 45.7 0.08 Q 46.24 0.16 46.88 0.3 A 13.664 13.664 0 0 1 47.41 0.426 Q 47.65 0.489 47.862 0.555 A 7.815 7.815 0 0 1 48 0.6 Q 48.383 0.728 48.461 0.856 A 0.124 0.124 0 0 1 48.48 0.92 A 0.126 0.126 0 0 1 48.455 0.991 Q 48.401 1.069 48.231 1.163 A 2.043 2.043 0 0 1 48.16 1.2 Q 47.84 1.36 47.48 1.46 A 6.858 6.858 0 0 1 47.334 1.499 Q 47.094 1.56 47 1.56 A 68.736 68.736 0 0 0 44.82 2.253 A 63.065 63.065 0 0 0 44.68 2.3 Q 43.56 2.68 42.52 3.36 Q 42.24 3.52 42 3.66 Q 41.76 3.8 41.52 3.96 Q 41.24 4.12 41 4.28 L 40.52 4.6 Q 37.88 6.4 35.38 8.38 Q 32.88 10.36 30.6 12.6 L 30.6 12.76 A 0.093 0.093 0 0 1 30.6 12.77 Q 30.582 12.933 30.012 13.489 A 12.488 12.488 0 0 1 29.98 13.52 A 47.706 47.706 0 0 1 29.396 14.076 Q 29.093 14.358 28.752 14.669 A 84.21 84.21 0 0 1 28.52 14.88 A 84.28 84.28 0 0 1 27.768 15.553 Q 27.412 15.867 27.091 16.142 A 49.477 49.477 0 0 1 27 16.22 A 93.717 93.717 0 0 0 26.765 16.421 Q 26.36 16.769 26.233 16.889 A 1.504 1.504 0 0 0 26.2 16.92 Q 26.36 16.88 26.52 16.88 L 26.84 16.88 L 28.08 16.88 A 1.389 1.389 0 0 0 28.249 16.912 A 1.085 1.085 0 0 0 28.38 16.92 L 28.68 16.92 Q 28.8 16.88 28.9 16.86 A 1.137 1.137 0 0 1 28.984 16.846 Q 29.027 16.841 29.066 16.84 A 0.662 0.662 0 0 1 29.08 16.84 Q 29.269 16.84 29.459 16.983 A 1.018 1.018 0 0 1 29.48 17 L 29.76 17 A 0.942 0.942 0 0 1 29.938 16.858 A 0.652 0.652 0 0 1 30.28 16.76 Q 30.317 16.76 30.389 16.829 A 0.834 0.834 0 0 1 30.4 16.84 L 30.6 17.12 Q 31.08 17.2 31.56 17.26 A 7.938 7.938 0 0 0 32.415 17.319 A 8.87 8.87 0 0 0 32.56 17.32 A 2.538 2.538 0 0 1 32.757 17.327 Q 33.039 17.349 33.16 17.44 L 33.34 17.62 Q 33.434 17.714 33.58 17.79 A 1.399 1.399 0 0 0 33.6 17.8 A 0.529 0.529 0 0 0 33.862 17.941 A 0.794 0.794 0 0 0 34.04 17.96 Q 34.28 18.04 34.32 18.28 L 34.08 19.12 A 0.48 0.48 0 0 0 34.209 19.1 Q 34.384 19.051 34.64 18.88 A 2.643 2.643 0 0 1 34.773 18.786 Q 34.981 18.649 35.104 18.641 A 0.23 0.23 0 0 1 35.12 18.64 L 35.16 18.76 L 35.4 18.92 L 35.56 18.8 Q 35.6 18.76 35.72 18.76 Q 35.757 18.76 35.829 18.829 A 0.834 0.834 0 0 1 35.84 18.84 Q 36.32 19.52 36.88 19.92 Q 37.44 20.28 37.72 20.92 A 2.704 2.704 0 0 1 37.812 21.127 Q 37.931 21.426 38.06 21.9 Q 38.24 22.56 38.38 23.22 A 8.943 8.943 0 0 1 38.454 23.607 Q 38.52 24.005 38.52 24.28 L 38.52 24.4 A 15.682 15.682 0 0 1 38.067 28.22 A 13.859 13.859 0 0 1 37.54 29.88 A 11.772 11.772 0 0 1 35.481 33.275 A 14.592 14.592 0 0 1 34.32 34.48 A 2.627 2.627 0 0 0 34.349 34.465 Q 34.472 34.402 34.97 34.137 A 433.167 433.167 0 0 0 35.04 34.1 Q 35.48 33.866 36.053 33.576 A 102.588 102.588 0 0 1 36.6 33.3 L 38.44 32.38 Q 39.36 31.92 40.02 31.62 Q 40.669 31.325 40.834 31.32 A 0.185 0.185 0 0 1 40.84 31.32 A 0.115 0.115 0 0 1 40.872 31.324 Q 40.907 31.334 40.917 31.37 A 0.118 0.118 0 0 1 40.92 31.4 A 0.171 0.171 0 0 1 40.888 31.493 Q 40.815 31.603 40.58 31.743 A 3.053 3.053 0 0 1 40.48 31.8 Q 40.196 32.021 40.011 32.118 A 1.004 1.004 0 0 1 39.92 32.16 A 30.521 30.521 0 0 1 39.596 32.33 Q 39.148 32.562 38.543 32.861 A 95.541 95.541 0 0 1 38.34 32.96 A 49.293 49.293 0 0 0 36.926 33.68 A 43.36 43.36 0 0 0 36.48 33.92 Q 35.761 34.312 35.363 34.597 A 3.83 3.83 0 0 0 35.2 34.72 A 4.906 4.906 0 0 1 34.44 35.338 A 5.563 5.563 0 0 1 34.28 35.44 Q 34 35.6 33.76 35.76 L 33.28 36.08 L 32.92 36.4 A 0.686 0.686 0 0 1 32.811 36.488 A 0.893 0.893 0 0 1 32.72 36.54 A 0.866 0.866 0 0 0 32.607 36.607 A 0.669 0.669 0 0 0 32.52 36.68 A 0.889 0.889 0 0 0 32.478 36.703 Q 32.379 36.76 32.121 36.923 A 48.974 48.974 0 0 0 32 37 Q 31.56 37.28 31.02 37.66 Q 30.516 38.015 30.134 38.335 A 9.385 9.385 0 0 0 30.08 38.38 Q 29.682 38.719 29.68 38.839 Q 29.68 38.989 29.855 39.069 A 0.581 0.581 0 0 0 29.88 39.08 A 0.382 0.382 0 0 1 29.98 39.137 Q 30.08 39.219 30.08 39.36 A 0.296 0.296 0 0 1 30.062 39.465 A 0.266 0.266 0 0 1 30 39.56 A 16.183 16.183 0 0 1 29.756 39.69 Q 29.481 39.834 29.104 40.021 A 62 62 0 0 1 28.74 40.2 Q 27.92 40.6 27.08 40.9 A 7.353 7.353 0 0 1 26.598 41.055 Q 26.082 41.2 25.72 41.2 A 0.726 0.726 0 0 1 25.56 41.181 Q 25.483 41.163 25.398 41.13 A 1.807 1.807 0 0 1 25.24 41.06 A 0.705 0.705 0 0 1 25.111 40.979 Q 24.96 40.856 24.96 40.68 Q 24.96 40.326 25.508 40.051 A 2.743 2.743 0 0 1 25.66 39.98 A 44.866 44.866 0 0 0 25.986 39.839 Q 26.44 39.64 26.68 39.52 Q 27.56 39.2 28.32 38.8 Q 29.08 38.4 29.72 37.88 A 15.211 15.211 0 0 0 31.898 35.772 A 18.194 18.194 0 0 0 32.8 34.62 Q 34.2 32.68 35.02 30.42 A 13.893 13.893 0 0 0 35.702 27.803 A 11.534 11.534 0 0 0 35.84 26.04 A 8.107 8.107 0 0 0 35.814 25.37 Q 35.765 24.773 35.62 24.34 Q 35.4 23.68 34.72 22.88 Z M 52.08 35.56 L 50.92 35.72 A 4.245 4.245 0 0 0 50.566 35.342 Q 50.336 35.126 50.1 34.98 A 3.304 3.304 0 0 1 49.548 34.555 A 2.936 2.936 0 0 1 49.38 34.38 A 1.133 1.133 0 0 1 49.142 33.93 Q 49.094 33.76 49.083 33.556 A 2.251 2.251 0 0 1 49.08 33.44 L 49.16 33.44 L 49.04 32.84 L 48.92 32.96 L 48.84 33.08 Q 48.88 32.92 48.92 32.78 Q 48.96 32.64 49 32.52 A 4.753 4.753 0 0 0 49.042 32.278 A 3.975 3.975 0 0 0 49.06 32.14 A 3.311 3.311 0 0 0 49.079 31.865 A 3.844 3.844 0 0 0 49.08 31.76 Q 49.08 31.24 49.16 30.74 Q 49.24 30.24 49.36 29.76 Q 49.48 29.28 49.58 28.78 A 18.488 18.488 0 0 0 49.708 28.064 A 21.583 21.583 0 0 0 49.76 27.72 L 49.84 27.72 L 50.28 26.68 L 50.24 26.48 A 2.813 2.813 0 0 1 50.207 26.544 Q 50.161 26.631 50.131 26.667 A 0.164 0.164 0 0 1 50.12 26.68 Q 50.083 26.755 50.01 26.83 A 0.883 0.883 0 0 1 50 26.84 A 86.443 86.443 0 0 1 49.642 27.357 Q 49.32 27.818 48.92 28.38 Q 48.28 29.28 47.64 30.06 A 8.318 8.318 0 0 1 47.252 30.503 Q 46.838 30.94 46.48 31.16 Q 46.165 31.357 46.044 31.457 A 0.987 0.987 0 0 0 46.04 31.46 A 0.398 0.398 0 0 0 45.978 31.528 Q 45.89 31.647 45.783 31.903 A 4.637 4.637 0 0 0 45.76 31.96 A 1.082 1.082 0 0 0 45.396 32.11 Q 45.264 32.193 45.135 32.317 A 2.358 2.358 0 0 0 44.98 32.48 Q 44.6 32.92 44.24 33.32 A 1.564 1.564 0 0 1 43.96 33.568 A 1.088 1.088 0 0 1 43.44 33.76 L 43.4 33.96 A 1.193 1.193 0 0 1 43.059 34.196 A 1.641 1.641 0 0 1 42.76 34.3 A 7.54 7.54 0 0 1 42.425 34.376 Q 42.259 34.41 42.109 34.431 A 4.372 4.372 0 0 1 42.04 34.44 A 7.943 7.943 0 0 1 40.557 33.713 A 9.001 9.001 0 0 1 40.32 33.56 A 1.948 1.948 0 0 1 39.776 33.032 Q 39.508 32.635 39.483 32.11 A 2.297 2.297 0 0 1 39.48 32 A 2.223 2.223 0 0 1 39.5 31.695 Q 39.529 31.486 39.6 31.32 L 39.64 31.32 L 39.64 31.12 Q 39.572 31.018 39.591 30.859 A 0.729 0.729 0 0 1 39.6 30.8 Q 39.634 30.632 39.696 30.605 A 0.061 0.061 0 0 1 39.72 30.6 L 39.76 30.64 Q 39.828 30.539 39.853 30.323 A 1.94 1.94 0 0 0 39.86 30.24 Q 39.876 30.022 39.879 29.925 A 1.321 1.321 0 0 0 39.88 29.88 L 39.96 29.8 Q 39.96 29.59 40.118 29.357 A 1.622 1.622 0 0 1 40.24 29.2 Q 40.52 28.88 40.78 28.6 A 2.799 2.799 0 0 0 40.875 28.493 Q 41.011 28.331 41.035 28.237 A 0.15 0.15 0 0 0 41.04 28.2 Q 41.08 28.16 41.08 28.08 Q 41.08 27.95 41.063 27.854 A 0.656 0.656 0 0 0 41.04 27.76 Q 40.987 27.653 40.987 27.564 A 0.265 0.265 0 0 1 41 27.48 L 41 27.32 L 41.16 27.32 L 41.28 27.12 L 41.28 27.04 A 0.974 0.974 0 0 1 41.239 27.011 Q 41.181 26.968 41.166 26.939 A 0.041 0.041 0 0 1 41.16 26.92 L 41.16 26.84 A 0.296 0.296 0 0 1 41.178 26.735 A 0.266 0.266 0 0 1 41.24 26.64 L 41.36 26.52 L 41.36 26.48 Q 41.36 26.44 41.4 26.4 L 41.4 26.32 L 41.6 26.12 A 2.855 2.855 0 0 1 41.673 26.05 Q 41.776 25.954 41.836 25.922 A 0.235 0.235 0 0 1 41.84 25.92 Q 42.098 25.566 42.277 25.264 A 5.62 5.62 0 0 0 42.36 25.12 L 42.52 25.12 L 42.56 25.16 L 42.5 25.04 A 0.193 0.193 0 0 1 42.484 24.995 A 0.163 0.163 0 0 1 42.48 24.96 A 0.568 0.568 0 0 1 42.521 24.764 Q 42.623 24.489 42.986 24.079 A 5.881 5.881 0 0 1 43.02 24.04 Q 43.484 23.524 44.111 22.935 A 26.977 26.977 0 0 1 44.32 22.74 Q 45.08 22.04 45.8 21.42 Q 46.351 20.945 46.715 20.623 A 35.945 35.945 0 0 0 46.92 20.44 L 46.92 20.24 L 47 20.24 A 1.247 1.247 0 0 0 47.144 20.155 Q 47.214 20.107 47.287 20.046 A 2.341 2.341 0 0 0 47.34 20 A 9.468 9.468 0 0 1 47.67 19.72 A 10.385 10.385 0 0 1 47.72 19.68 Q 48.12 19.28 48.4 19.24 L 48.48 19.04 L 48.72 19 L 48.8 18.92 L 48.88 18.84 Q 48.96 18.8 49 18.8 Q 49.04 18.8 49.08 18.76 L 49.12 18.72 L 49.2 18.68 L 49.2 18.64 L 49.2 18.62 A 0.031 0.031 0 0 1 49.203 18.608 Q 49.21 18.591 49.235 18.566 A 0.418 0.418 0 0 1 49.24 18.56 L 49.96 18.28 L 50.04 18.32 L 50.6 18.08 L 50.72 17.96 L 50.76 17.96 L 51.28 17.92 L 51.56 17.76 L 51.64 17.68 L 51.64 17.72 L 51.68 17.68 L 51.76 17.76 A 1.849 1.849 0 0 1 52.233 17.619 A 1.637 1.637 0 0 1 52.48 17.6 A 2.912 2.912 0 0 1 52.729 17.612 Q 52.986 17.634 53.326 17.698 A 9.968 9.968 0 0 1 53.44 17.72 Q 54.04 17.84 54.56 18.1 Q 55.08 18.36 55.16 18.8 L 55.16 18.88 L 54.32 19.36 Q 54.385 19.197 54.424 19.141 A 0.143 0.143 0 0 1 54.44 19.12 L 54.44 19.08 A 0.064 0.064 0 0 0 54.401 19.02 Q 54.37 19.005 54.314 19.001 A 0.539 0.539 0 0 0 54.28 19 L 54.04 19 Q 53.2 19 52.5 19.48 A 39.093 39.093 0 0 0 51.24 20.38 A 35.752 35.752 0 0 0 51.16 20.44 A 1.1 1.1 0 0 0 50.873 20.551 Q 50.748 20.62 50.618 20.723 A 2.677 2.677 0 0 0 50.4 20.92 A 6.264 6.264 0 0 1 50.135 21.171 Q 49.89 21.389 49.68 21.52 A 41.106 41.106 0 0 0 47.847 23.012 A 33.742 33.742 0 0 0 46.86 23.9 A 15.613 15.613 0 0 0 45.34 25.555 A 19.332 19.332 0 0 0 44.48 26.72 A 55.032 55.032 0 0 1 44.373 26.891 Q 44.224 27.127 44.026 27.437 A 164.843 164.843 0 0 1 43.96 27.54 A 6.006 6.006 0 0 1 43.786 27.798 Q 43.619 28.032 43.476 28.171 A 1.309 1.309 0 0 1 43.4 28.24 L 43 28.96 Q 42.8 29.32 42.64 29.72 Q 42.48 30.12 42.28 30.48 Q 42.08 30.84 41.88 31.16 Q 41.88 31.64 41.76 32.08 A 2.086 2.086 0 0 0 41.718 32.222 Q 41.699 32.295 41.69 32.359 A 0.83 0.83 0 0 0 41.68 32.48 A 0.756 0.756 0 0 0 41.64 32.716 A 0.703 0.703 0 0 0 41.64 32.72 Q 41.64 32.817 41.614 32.887 A 0.318 0.318 0 0 1 41.6 32.92 L 41.76 33.28 Q 42.09 33.143 42.515 32.948 A 41.559 41.559 0 0 0 42.92 32.76 A 2.404 2.404 0 0 0 43.185 32.616 Q 43.6 32.353 43.6 32.04 L 43.84 31.96 L 43.92 31.96 L 43.92 31.88 A 0.703 0.703 0 0 1 43.953 31.849 Q 44.002 31.806 44.032 31.801 A 0.047 0.047 0 0 1 44.04 31.8 L 44.16 31.8 L 44.28 31.64 L 44.28 31.44 L 44.44 31.6 L 44.96 31.08 Q 44.96 30.88 45.24 30.84 Q 45.92 30.28 46.44 29.52 Q 46.72 29.12 47 28.76 Q 47.28 28.4 47.6 28.08 L 47.68 28.08 L 48.2 27.44 L 48.16 27.28 L 48.72 26.56 L 48.8 26.56 A 1.887 1.887 0 0 1 48.94 26.245 A 2.313 2.313 0 0 1 49.04 26.08 L 49.16 26.16 L 49.48 25.72 L 49.44 25.68 A 9.102 9.102 0 0 1 49.85 25.08 A 9.934 9.934 0 0 1 49.88 25.04 Q 50.12 24.72 50.36 24.44 Q 50.6 24.12 50.82 23.8 Q 51.04 23.48 51.24 23.16 Q 51.24 22.88 51.44 22.64 Q 51.64 22.4 51.96 22.4 L 52.24 22.48 Q 52.38 22.235 52.398 21.744 A 4.068 4.068 0 0 0 52.4 21.6 Q 52.6 21.64 52.72 21.52 L 52.96 21.44 L 52.96 21.52 L 53.28 21.64 Q 53.403 21.579 53.479 21.564 A 0.226 0.226 0 0 1 53.52 21.56 A 1.217 1.217 0 0 1 53.975 21.651 A 1.556 1.556 0 0 1 54.16 21.74 A 4.147 4.147 0 0 1 54.494 21.948 A 3.253 3.253 0 0 1 54.72 22.12 A 0.251 0.251 0 0 0 54.721 22.135 Q 54.724 22.196 54.76 22.16 Q 54.76 22.12 54.8 22.12 L 55 22.12 Q 55.52 22.12 55.52 22.56 L 55.52 22.68 Q 55.32 22.96 55.14 23.24 Q 54.96 23.52 54.8 23.8 A 3.334 3.334 0 0 1 54.154 24.602 A 3.974 3.974 0 0 1 53.92 24.8 L 53.92 24.88 L 53.28 25.8 L 53.36 25.96 L 52 27.64 L 51.88 27.68 Q 51.8 27.96 51.7 28.22 A 14.973 14.973 0 0 1 51.539 28.621 A 17.112 17.112 0 0 1 51.48 28.76 L 51.12 28.88 A 0.27 0.27 0 0 1 51.2 29.072 A 0.354 0.354 0 0 1 51.2 29.08 A 0.994 0.994 0 0 0 51.202 29.143 Q 51.208 29.236 51.233 29.271 A 0.066 0.066 0 0 0 51.24 29.28 A 9.586 9.586 0 0 0 50.742 30.367 A 8.768 8.768 0 0 0 50.7 30.48 A 2.66 2.66 0 0 0 50.539 31.403 A 3.054 3.054 0 0 0 50.56 31.76 Q 50.44 31.84 50.42 31.98 A 2.057 2.057 0 0 0 50.404 32.131 A 1.606 1.606 0 0 0 50.4 32.24 A 3.592 3.592 0 0 0 50.411 32.517 A 3.096 3.096 0 0 0 50.42 32.62 A 4.158 4.158 0 0 0 50.453 32.853 A 4.968 4.968 0 0 0 50.48 33 L 50.56 33.4 L 50.64 33.8 L 51.08 33.56 L 51.2 33.56 L 51.24 33.52 L 51.32 33.4 A 0.301 0.301 0 0 1 51.336 33.306 Q 51.364 33.221 51.44 33.12 L 51.52 33.44 L 51.88 33.28 L 51.88 33.44 L 51.92 33.44 Q 52.048 33.44 52.124 33.288 A 0.658 0.658 0 0 0 52.16 33.2 A 2.219 2.219 0 0 1 52.226 33.137 Q 52.263 33.103 52.306 33.066 A 4.311 4.311 0 0 1 52.36 33.02 Q 52.48 32.92 52.64 32.92 L 52.68 32.84 L 52.68 32.72 A 0.272 0.272 0 0 1 52.766 32.523 Q 52.807 32.482 52.866 32.447 A 0.821 0.821 0 0 1 52.96 32.4 A 1.331 1.331 0 0 0 53.072 32.367 Q 53.125 32.349 53.17 32.327 A 0.642 0.642 0 0 0 53.22 32.3 Q 53.291 32.258 53.351 32.245 A 0.242 0.242 0 0 1 53.4 32.24 L 53.44 32.24 L 54.48 31.2 L 54.52 31.2 A 0.689 0.689 0 0 1 54.571 31.134 Q 54.665 31.025 54.86 30.86 A 2.809 2.809 0 0 1 55.017 30.736 Q 55.098 30.677 55.173 30.633 A 1.118 1.118 0 0 1 55.32 30.56 L 55.32 30.28 L 55.6 30.2 L 55.64 30.2 L 56.56 28.92 A 0.032 0.032 0 0 0 56.58 28.95 Q 56.595 28.958 56.623 28.959 A 0.269 0.269 0 0 0 56.64 28.96 Q 56.72 28.96 56.76 29 A 0.043 0.043 0 0 0 56.781 28.993 Q 56.823 28.968 56.9 28.86 Q 56.977 28.753 56.995 28.68 A 0.169 0.169 0 0 0 57 28.64 L 57.1 28.54 Q 57.151 28.489 57.273 28.453 A 1.092 1.092 0 0 1 57.32 28.44 A 1.213 1.213 0 0 1 57.388 28.398 Q 57.456 28.359 57.508 28.343 A 0.302 0.302 0 0 1 57.52 28.34 Q 57.6 28.32 57.64 28.28 A 108.101 108.101 0 0 0 57.237 29.056 Q 57.048 29.425 56.882 29.756 A 64.683 64.683 0 0 0 56.86 29.8 Q 56.52 30.48 56.2 31.16 Q 55.88 31.84 55.48 32.46 A 6.882 6.882 0 0 1 54.902 33.227 A 8.515 8.515 0 0 1 54.48 33.68 L 54.32 33.52 L 54.6 33.16 L 54.56 32.92 L 54.48 32.96 L 54.48 33.12 L 54.2 33.4 A 1.444 1.444 0 0 1 54.148 33.698 Q 54.093 33.883 53.987 34.018 A 0.795 0.795 0 0 1 53.84 34.16 L 53.68 34.16 L 53.6 34.12 L 53.6 34.32 L 53.36 34.6 L 53.24 34.56 L 52.76 35.24 L 52.76 35.12 L 52.68 35.16 L 52.52 35.24 L 52.36 35.32 Q 52.227 35.364 52.156 35.433 A 0.262 0.262 0 0 0 52.08 35.56 Z M 74.04 34.68 L 73.84 34.68 A 0.216 0.216 0 0 1 73.794 34.674 Q 73.712 34.656 73.56 34.58 A 0.632 0.632 0 0 1 73.453 34.513 Q 73.394 34.468 73.36 34.413 A 0.317 0.317 0 0 1 73.32 34.32 L 73.44 34.32 Q 73.52 34.28 73.62 34.24 Q 73.703 34.207 73.744 34.174 A 0.184 0.184 0 0 0 73.76 34.16 Q 73.84 34.12 73.94 34.08 Q 74.04 34.04 74.12 34 Q 74.4 33.84 74.64 33.36 A 7.732 7.732 0 0 0 75.037 32.407 A 8.484 8.484 0 0 0 75.06 32.34 L 75.32 31.56 L 75.44 31.04 A 2.166 2.166 0 0 1 75.444 30.908 Q 75.448 30.848 75.455 30.795 A 1.198 1.198 0 0 1 75.46 30.76 Q 75.48 30.64 75.52 30.52 Q 75.64 30.08 75.82 29.68 Q 76 29.28 76.2 28.88 Q 76.235 28.811 76.255 28.59 A 3.994 3.994 0 0 0 76.26 28.52 Q 76.279 28.262 76.28 28.14 A 1.678 1.678 0 0 0 76.28 28.12 Q 76.243 28.12 76.171 28.051 A 0.834 0.834 0 0 1 76.16 28.04 A 0.18 0.18 0 0 1 76.14 28.016 Q 76.129 28.001 76.125 27.987 A 0.084 0.084 0 0 1 76.12 27.96 A 0.24 0.24 0 0 1 76.122 27.933 Q 76.128 27.88 76.16 27.88 A 7.027 7.027 0 0 1 76.286 27.604 Q 76.365 27.441 76.46 27.26 A 0.971 0.971 0 0 1 76.611 27.045 A 0.708 0.708 0 0 1 76.96 26.84 A 2.736 2.736 0 0 1 77.117 26.515 A 3.096 3.096 0 0 1 77.16 26.44 A 2.867 2.867 0 0 0 77.326 26.121 A 2.553 2.553 0 0 0 77.36 26.04 Q 77.44 25.84 77.56 25.66 Q 77.68 25.48 77.76 25.28 L 78.12 24.2 Q 78.2 23.92 78.3 23.66 Q 78.4 23.4 78.56 23.16 L 78.44 23.16 L 78.36 22.92 L 78.52 22.68 L 78.24 22.6 A 0.545 0.545 0 0 0 78.363 22.542 A 0.462 0.462 0 0 0 78.44 22.48 L 78.44 22.44 Q 78.36 22.36 78.333 22.28 A 0.252 0.252 0 0 1 78.32 22.2 A 0.24 0.24 0 0 1 78.322 22.173 Q 78.328 22.12 78.36 22.12 A 2.05 2.05 0 0 0 78.43 21.966 A 1.504 1.504 0 0 0 78.48 21.82 Q 78.52 21.68 78.56 21.52 Q 78.64 21.2 78.84 21 L 78.76 21 A 0.026 0.026 0 0 1 78.746 21.023 Q 78.723 21.037 78.664 21.04 A 0.612 0.612 0 0 1 78.64 21.04 A 0.073 0.073 0 0 1 78.598 21.028 Q 78.56 21.003 78.56 20.92 A 1.22 1.22 0 0 1 78.575 20.735 Q 78.595 20.607 78.64 20.46 Q 78.715 20.217 78.79 20.027 A 4.284 4.284 0 0 1 78.8 20 L 78.96 19.44 Q 79.04 19.16 79.04 18.88 A 1.03 1.03 0 0 0 79.037 18.796 Q 79.029 18.698 79 18.64 A 0.972 0.972 0 0 1 78.955 18.537 Q 78.937 18.485 78.928 18.439 A 0.426 0.426 0 0 1 78.92 18.36 Q 78.92 18.228 79.03 18.095 A 0.796 0.796 0 0 1 79.08 18.04 Q 79.2 17.96 79.32 17.84 Q 79.136 17.779 79.046 17.717 A 0.319 0.319 0 0 1 79 17.68 Q 78.934 17.581 78.785 17.536 A 0.717 0.717 0 0 0 78.72 17.52 L 78.68 17.52 L 78.28 17.44 L 77.96 17.32 A 0.637 0.637 0 0 1 77.882 17.283 Q 77.799 17.236 77.772 17.177 A 0.137 0.137 0 0 1 77.76 17.12 A 0.148 0.148 0 0 1 77.801 17.019 Q 77.851 16.964 77.96 16.92 A 3.998 3.998 0 0 0 78.043 16.891 Q 78.205 16.834 78.239 16.801 A 0.061 0.061 0 0 0 78.24 16.8 Q 78.8 16.92 79.7 17.12 A 15.465 15.465 0 0 1 80.994 17.465 A 13.645 13.645 0 0 1 81.4 17.6 Q 82.037 17.823 82.319 18.097 A 0.886 0.886 0 0 1 82.44 18.24 A 1.215 1.215 0 0 1 82.499 18.376 Q 82.525 18.451 82.537 18.52 A 0.722 0.722 0 0 1 82.54 18.54 A 2.057 2.057 0 0 1 82.556 18.691 A 1.606 1.606 0 0 1 82.56 18.8 A 1.173 1.173 0 0 1 82.546 18.965 Q 82.507 19.237 82.355 19.714 A 11.505 11.505 0 0 1 82.34 19.76 A 7.323 7.323 0 0 1 81.917 20.799 A 6.572 6.572 0 0 1 81.8 21.02 Q 81.516 21.535 81.2 21.687 A 0.677 0.677 0 0 1 81.12 21.72 L 81.16 21.76 L 81.32 22.04 L 81.4 22.28 Q 81.4 22.4 81.34 22.54 A 0.297 0.297 0 0 1 81.159 22.708 A 0.414 0.414 0 0 1 81.12 22.72 L 81.08 22.76 Q 81.08 22.8 81.04 22.84 Q 81 22.88 81 22.96 A 0.565 0.565 0 0 1 80.998 23.012 Q 80.991 23.089 80.96 23.12 L 81 23.12 L 81 23.28 A 0.371 0.371 0 0 1 80.944 23.484 Q 80.884 23.578 80.76 23.64 Q 80.72 23.84 80.5 24.34 Q 80.309 24.774 80.193 24.922 A 0.423 0.423 0 0 1 80.16 24.96 L 80 25.2 Q 80.027 25.227 80.036 25.253 A 0.084 0.084 0 0 1 80.04 25.28 A 0.266 0.266 0 0 1 80.037 25.322 Q 80.025 25.396 79.966 25.4 A 0.101 0.101 0 0 1 79.96 25.4 L 79.88 25.48 A 0.422 0.422 0 0 1 79.843 25.559 Q 79.798 25.637 79.71 25.729 A 1.682 1.682 0 0 1 79.68 25.76 A 0.534 0.534 0 0 1 79.582 25.898 A 0.518 0.518 0 0 1 79.58 25.9 A 0.534 0.534 0 0 0 79.48 26.039 Q 79.244 26.316 79.318 26.63 A 0.719 0.719 0 0 0 79.32 26.64 L 79.28 26.64 Q 79.28 26.706 79.225 26.773 A 0.398 0.398 0 0 1 79.2 26.8 Q 79.12 26.96 79 27.16 A 0.581 0.581 0 0 1 78.897 27.29 A 0.441 0.441 0 0 1 78.68 27.4 Q 78.64 27.56 78.6 27.74 Q 78.56 27.92 78.52 28 Q 78.48 28.08 78.44 28.18 Q 78.4 28.28 78.36 28.36 L 78.2 28.76 Q 78 29.24 77.84 29.74 Q 77.68 30.24 77.52 30.8 L 77.64 30.8 Q 77.64 30.84 77.68 30.84 A 0.32 0.32 0 0 0 77.873 30.773 Q 77.961 30.708 78.04 30.58 A 0.801 0.801 0 0 0 78.109 30.441 Q 78.147 30.34 78.147 30.242 A 0.51 0.51 0 0 0 78.12 30.08 A 0.919 0.919 0 0 0 78.233 30.026 Q 78.289 29.994 78.331 29.958 A 0.396 0.396 0 0 0 78.4 29.88 A 1.486 1.486 0 0 1 78.484 29.802 Q 78.626 29.68 78.72 29.68 Q 78.92 29.48 79.04 29.4 L 79.32 29.12 Q 79.92 28.56 80.36 27.84 Q 80.56 27.52 80.82 27.18 A 6.345 6.345 0 0 1 81.256 26.667 A 5.658 5.658 0 0 1 81.36 26.56 Q 81.68 26.16 82.02 25.76 Q 82.36 25.36 82.64 24.92 Q 82.92 24.48 83.22 24.08 Q 83.52 23.68 83.84 23.28 Q 84.12 22.96 84.4 22.62 Q 84.68 22.28 84.88 21.88 A 0.361 0.361 0 0 1 84.839 21.831 Q 84.8 21.776 84.8 21.72 A 0.306 0.306 0 0 1 84.828 21.601 Q 84.906 21.419 85.2 21.14 Q 85.6 20.76 86.14 20.36 A 19.929 19.929 0 0 1 86.8 19.891 A 16.532 16.532 0 0 1 87.18 19.64 A 13.758 13.758 0 0 1 87.398 19.503 Q 87.669 19.337 87.821 19.266 A 1.153 1.153 0 0 1 87.88 19.24 A 0.475 0.475 0 0 0 87.946 19.234 Q 88.088 19.214 88.4 19.12 A 15.469 15.469 0 0 1 88.553 19.079 Q 88.818 19.01 88.901 19.001 A 0.196 0.196 0 0 1 88.92 19 L 89.04 19 A 17.452 17.452 0 0 1 89.029 19.637 A 15.137 15.137 0 0 1 89.02 19.84 A 2.674 2.674 0 0 1 88.971 20.242 A 2.104 2.104 0 0 1 88.88 20.56 Q 88.76 20.92 88.62 21.28 Q 88.48 21.64 88.32 22 A 18.36 18.36 0 0 1 87.839 23.182 A 16.417 16.417 0 0 1 87.72 23.44 L 87.36 24.4 Q 87.28 24.64 87.16 24.88 Q 87.044 25.112 86.965 25.307 A 4.276 4.276 0 0 0 86.96 25.32 L 86.8 25.72 A 0.675 0.675 0 0 1 86.654 26.021 A 0.849 0.849 0 0 1 86.6 26.08 Q 86.6 26.119 86.582 26.213 A 2.566 2.566 0 0 1 86.58 26.22 Q 86.56 26.32 86.52 26.44 A 0.755 0.755 0 0 0 86.759 26.4 A 13.896 13.896 0 0 0 86.601 26.779 Q 86.445 27.165 86.363 27.451 A 4.194 4.194 0 0 0 86.36 27.46 A 3.339 3.339 0 0 0 86.287 27.779 Q 86.257 27.947 86.235 28.142 A 8.067 8.067 0 0 0 86.2 28.56 Q 86.68 27.92 87.22 27.22 A 43.375 43.375 0 0 1 87.409 26.976 Q 87.768 26.519 87.904 26.377 A 1.105 1.105 0 0 1 87.92 26.36 Q 88.36 26.04 88.84 25.6 Q 89.32 25.16 89.76 24.72 L 90.24 24.24 Q 90.48 24 90.68 23.76 Q 90.88 23.52 91.1 23.3 L 91.52 22.88 A 6.671 6.671 0 0 0 91.785 22.6 A 6.078 6.078 0 0 0 91.82 22.56 A 5.54 5.54 0 0 0 92.05 22.28 A 5.058 5.058 0 0 0 92.08 22.24 A 3.236 3.236 0 0 1 92.339 21.885 A 4.26 4.26 0 0 1 92.6 21.6 A 1.953 1.953 0 0 0 92.813 21.345 Q 92.902 21.218 92.986 21.065 A 3.521 3.521 0 0 0 93.04 20.96 L 93.2 20.64 Q 93.275 20.49 93.42 20.34 A 1.769 1.769 0 0 1 93.44 20.32 L 93.72 20.04 Q 93.849 19.911 93.953 19.886 A 0.203 0.203 0 0 1 94 19.88 Q 94.144 19.88 94.159 20.043 A 0.431 0.431 0 0 1 94.16 20.08 Q 94.16 20.522 93.698 21.151 A 5.375 5.375 0 0 1 93.52 21.38 A 174.308 174.308 0 0 1 93.213 21.754 Q 92.777 22.281 92.451 22.668 A 63.443 63.443 0 0 1 92.44 22.68 Q 92.28 22.84 92.16 23.02 Q 92.04 23.2 91.92 23.4 A 5.483 5.483 0 0 1 91.439 23.997 A 4.916 4.916 0 0 1 91.32 24.12 L 90.36 25.2 Q 89.86 25.7 89.527 26.144 A 5.707 5.707 0 0 0 89.4 26.32 Q 88.84 27.12 88.26 27.94 Q 87.68 28.76 86.96 29.44 Q 86.52 29.88 86.26 30.48 Q 86 31.08 85.76 31.64 A 1.746 1.746 0 0 1 85.772 31.769 Q 85.778 31.903 85.761 32.017 A 0.851 0.851 0 0 1 85.72 32.18 Q 85.64 32.4 85.2 32.4 Q 84.8 32.4 84.4 32.34 A 0.681 0.681 0 0 1 83.949 32.064 Q 83.872 31.964 83.812 31.828 A 1.521 1.521 0 0 1 83.8 31.8 Q 83.762 31.723 83.611 31.571 A 3.483 3.483 0 0 0 83.6 31.56 A 0.258 0.258 0 0 1 83.484 31.373 A 0.377 0.377 0 0 1 83.48 31.32 Q 83.48 31.28 83.52 31.24 L 83.52 31.16 L 83.76 31.04 L 83.76 31 Q 83.72 30.8 83.7 30.6 Q 83.68 30.4 83.68 30.2 Q 83.68 29.8 83.72 29.42 A 8.431 8.431 0 0 1 83.821 28.74 A 9.306 9.306 0 0 1 83.84 28.64 Q 83.92 28.28 84 27.9 Q 84.08 27.52 84.12 27.12 A 0.116 0.116 0 0 0 84.135 27.119 Q 84.192 27.112 84.12 27.04 A 5.788 5.788 0 0 1 84.444 25.64 A 6.537 6.537 0 0 1 84.52 25.44 Q 84.84 24.64 85.14 23.86 A 4.663 4.663 0 0 0 85.374 23.048 A 3.72 3.72 0 0 0 85.44 22.36 L 85.44 22.2 Q 85.32 22.48 85.12 22.68 A 3.077 3.077 0 0 1 85.041 22.828 Q 85.001 22.898 84.961 22.958 A 1.973 1.973 0 0 1 84.96 22.96 Q 84.88 23.08 84.76 23.2 L 84.64 23.28 Q 84.481 23.407 84.398 23.661 A 1.471 1.471 0 0 0 84.36 23.8 Q 84.32 23.96 84.24 24.1 A 5.847 5.847 0 0 0 84.13 24.302 A 6.825 6.825 0 0 0 84.08 24.4 Q 84.04 24.48 83.8 24.72 L 83.68 24.8 Q 83.56 24.88 83.48 25 Q 83.407 25.109 83.334 25.186 A 0.935 0.935 0 0 1 83.32 25.2 A 3.207 3.207 0 0 1 82.731 26.029 A 3.065 3.065 0 0 1 82.72 26.04 Q 82.52 26.24 82.34 26.46 Q 82.16 26.68 81.96 26.88 L 81.8 27.12 A 1.456 1.456 0 0 0 81.72 27.207 Q 81.629 27.314 81.6 27.4 L 81.12 28.24 A 1.069 1.069 0 0 1 80.924 28.516 A 0.994 0.994 0 0 1 80.92 28.52 L 80.72 28.72 A 1.538 1.538 0 0 0 80.359 29.077 A 1.437 1.437 0 0 0 80.28 29.2 A 14.962 14.962 0 0 0 79.65 30.123 A 12.187 12.187 0 0 0 79.32 30.68 Q 79.08 31.08 78.78 31.42 Q 78.48 31.76 78.16 32.08 L 77.88 32.36 A 1.773 1.773 0 0 0 77.759 32.493 A 1.388 1.388 0 0 0 77.68 32.6 Q 77.6 32.72 77.48 32.84 L 77.28 33.04 L 76.52 33.8 Q 76.1 34.141 75.732 34.31 A 1.942 1.942 0 0 1 75.36 34.44 Q 75.011 34.467 74.535 34.566 A 12.858 12.858 0 0 0 74.04 34.68 Z M 59.56 34.24 L 59.6 34.04 A 5.217 5.217 0 0 1 59.048 34.013 Q 58.488 33.953 58.165 33.76 A 0.986 0.986 0 0 1 57.94 33.58 A 1.21 1.21 0 0 1 57.719 33.212 Q 57.52 32.72 57.52 31.84 A 0.565 0.565 0 0 1 57.522 31.788 Q 57.53 31.711 57.56 31.68 L 57.56 31.56 A 18.161 18.161 0 0 0 57.655 31.579 Q 57.79 31.605 57.88 31.62 A 1.867 1.867 0 0 0 57.958 31.631 Q 57.993 31.636 58.023 31.638 A 0.812 0.812 0 0 0 58.08 31.64 Q 58.48 31.64 58.64 31.48 Q 58.88 31.44 59.12 31.44 Q 59.36 31.44 59.6 31.4 Q 59.8 31.4 60.04 31.38 Q 60.28 31.36 60.48 31.32 L 60.48 31.28 A 74.226 74.226 0 0 1 59.847 29.985 Q 59.551 29.362 59.3 28.8 A 5.804 5.804 0 0 1 58.824 26.904 A 6.998 6.998 0 0 1 58.8 26.32 A 4.32 4.32 0 0 1 58.933 25.233 A 3.754 3.754 0 0 1 59.14 24.64 Q 59.48 23.88 59.68 23.04 A 0.599 0.599 0 0 1 59.726 22.934 Q 59.805 22.795 59.94 22.78 Q 60.082 22.764 60.162 22.736 A 0.337 0.337 0 0 0 60.2 22.72 Q 60.36 22.52 60.5 22.36 A 6.517 6.517 0 0 1 60.76 22.08 A 7.159 7.159 0 0 1 60.8 22.04 Q 60.92 21.92 61.06 21.82 Q 61.2 21.72 61.32 21.6 L 61.6 21.36 A 11.359 11.359 0 0 1 63.829 19.885 A 12.697 12.697 0 0 1 64.04 19.78 A 55.848 55.848 0 0 1 65.693 19.01 A 46.812 46.812 0 0 1 66.64 18.6 L 67.68 19.28 A 8.517 8.517 0 0 0 67.93 19.743 A 10.722 10.722 0 0 0 68.16 20.12 A 1.554 1.554 0 0 1 68.44 20.991 A 1.9 1.9 0 0 1 68.44 21.04 L 68.44 21.2 Q 68.404 21.272 68.401 21.41 A 1.189 1.189 0 0 0 68.4 21.44 L 68.16 21.8 L 67.54 22.2 Q 67.007 22.544 66.327 22.947 A 53.797 53.797 0 0 1 66.1 23.08 A 104.532 104.532 0 0 0 65.421 23.481 Q 65.112 23.665 64.838 23.831 A 58.553 58.553 0 0 0 64.66 23.94 A 42.023 42.023 0 0 1 64.514 24.029 Q 64.035 24.32 64 24.32 A 0.314 0.314 0 0 1 63.942 24.315 Q 63.846 24.297 63.84 24.211 A 0.168 0.168 0 0 1 63.84 24.2 Q 63.84 24.087 64.283 23.709 A 8.567 8.567 0 0 1 64.34 23.66 A 35.235 35.235 0 0 1 64.866 23.227 Q 65.146 23.001 65.46 22.756 A 59.095 59.095 0 0 1 65.48 22.74 Q 66.03 22.31 66.492 21.984 A 18.134 18.134 0 0 1 66.64 21.88 Q 67.16 21.52 67.2 21.48 Q 66.08 21.6 65 21.94 A 7.086 7.086 0 0 0 63.629 22.53 A 6.223 6.223 0 0 0 63.08 22.88 Q 63.01 22.915 62.88 22.889 A 0.834 0.834 0 0 1 62.84 22.88 Q 62.744 22.856 62.677 22.875 A 0.175 0.175 0 0 0 62.6 22.92 A 0.28 0.28 0 0 0 62.519 23.007 Q 62.465 23.094 62.44 23.24 Q 62.4 23.48 62.32 23.56 A 3.781 3.781 0 0 0 61.524 24.744 A 4.311 4.311 0 0 0 61.5 24.8 A 3.848 3.848 0 0 0 61.244 25.765 A 5.003 5.003 0 0 0 61.2 26.44 A 0.857 0.857 0 0 0 61.209 26.551 Q 61.243 26.799 61.4 27.38 Q 61.6 28.12 61.92 29 A 12.601 12.601 0 0 0 62.208 29.724 Q 62.398 30.16 62.6 30.52 Q 62.96 31.16 63.28 31.16 L 64.28 31.16 Q 64.52 31.16 64.76 31.14 Q 65 31.12 65.24 31.08 Q 65.68 31 66.08 30.84 Q 66.92 30.64 67.76 30.6 Q 68.023 30.45 68.391 30.37 A 3.188 3.188 0 0 1 68.44 30.36 Q 68.64 30.32 68.82 30.32 A 1.446 1.446 0 0 0 69.076 30.298 A 1.277 1.277 0 0 0 69.16 30.28 L 69.4 30.4 L 69.36 30.76 Q 69.08 30.84 68.46 31.08 Q 67.84 31.32 67.22 31.52 Q 66.6 31.72 66.28 31.72 L 66.12 31.68 Q 66.08 31.68 66.08 31.64 L 66.04 31.64 A 1.796 1.796 0 0 0 65.45 31.742 A 2.05 2.05 0 0 0 65.4 31.76 A 2.577 2.577 0 0 1 65.083 31.892 A 2.833 2.833 0 0 1 65.06 31.9 A 2.606 2.606 0 0 0 64.74 32.03 A 2.4 2.4 0 0 0 64.72 32.04 A 5.166 5.166 0 0 1 64.398 32.148 Q 64.203 32.207 63.98 32.26 A 2.625 2.625 0 0 1 63.37 32.331 A 2.758 2.758 0 0 1 63.12 32.32 A 3.047 3.047 0 0 1 62.608 33.721 A 3.629 3.629 0 0 1 62.54 33.82 A 1.6 1.6 0 0 1 61.374 34.506 A 2.201 2.201 0 0 1 61.12 34.52 A 3.592 3.592 0 0 1 60.843 34.51 A 3.096 3.096 0 0 1 60.74 34.5 A 4.158 4.158 0 0 1 60.507 34.467 A 4.968 4.968 0 0 1 60.36 34.44 Q 60.16 34.36 59.96 34.32 L 59.56 34.24 Z M 69.12 25.52 L 69.52 24.92 A 3.191 3.191 0 0 0 69.625 24.73 Q 69.676 24.631 69.726 24.517 A 5.595 5.595 0 0 0 69.76 24.44 Q 69.831 24.193 69.964 24.039 A 0.742 0.742 0 0 1 70 24 A 12.72 12.72 0 0 1 70.274 23.484 A 15.523 15.523 0 0 1 70.46 23.16 Q 70.72 22.72 71 22.28 A 3.939 3.939 0 0 0 71.435 21.299 A 3.304 3.304 0 0 0 71.56 20.4 Q 71.6 20.44 71.68 20.44 L 71.72 20.44 A 1.03 1.03 0 0 0 71.804 20.437 Q 71.903 20.429 71.96 20.4 L 72.12 20.4 Q 72.52 20.4 73.06 20.76 Q 73.6 21.12 74.04 21.62 A 2.656 2.656 0 0 1 74.252 21.891 Q 74.459 22.2 74.478 22.466 A 0.747 0.747 0 0 1 74.48 22.52 Q 74.48 22.8 74.18 23.16 A 10.455 10.455 0 0 1 73.696 23.7 A 11.842 11.842 0 0 1 73.52 23.88 L 73.16 24.24 L 72.8 24.64 Q 72.52 24.96 72.24 25.34 A 7.118 7.118 0 0 0 71.75 26.105 A 7.815 7.815 0 0 0 71.72 26.16 A 0.27 0.27 0 0 0 71.64 26.352 A 0.354 0.354 0 0 0 71.64 26.36 A 0.994 0.994 0 0 1 71.638 26.423 Q 71.632 26.516 71.607 26.551 A 0.066 0.066 0 0 1 71.6 26.56 A 0.297 0.297 0 0 1 71.518 26.761 Q 71.419 26.873 71.2 26.96 L 71.2 26.76 A 7.358 7.358 0 0 0 70.083 28.213 A 9.461 9.461 0 0 0 69.54 29.28 A 8.582 8.582 0 0 0 69.069 30.659 A 6.317 6.317 0 0 0 68.88 32.16 L 68.88 32.52 A 1.536 1.536 0 0 0 68.884 32.633 Q 68.897 32.804 68.951 32.87 A 0.138 0.138 0 0 0 68.96 32.88 A 0.352 0.352 0 0 0 68.982 32.944 Q 68.998 32.978 69.02 33 A 0.136 0.136 0 0 0 69.12 33.04 L 69.2 33.04 Q 69.2 33.08 69.24 33.08 Q 69.24 33.12 69.28 33.12 L 69.28 33.16 A 0.144 0.144 0 0 1 69.268 33.214 Q 69.25 33.26 69.201 33.316 A 0.839 0.839 0 0 1 69.16 33.36 L 69.12 33.4 L 69.04 33.48 A 0.025 0.025 0 0 0 69.053 33.498 Q 69.091 33.527 69.248 33.564 A 3.399 3.399 0 0 0 69.32 33.58 A 16.542 16.542 0 0 0 69.386 33.594 Q 69.605 33.64 69.64 33.64 A 0.28 0.28 0 0 0 69.733 33.621 Q 69.872 33.571 70.101 33.389 A 3.897 3.897 0 0 0 70.16 33.34 Q 70.52 33.04 70.92 32.68 Q 71.25 32.383 71.471 32.222 A 2.657 2.657 0 0 1 71.56 32.16 A 2.354 2.354 0 0 1 71.748 32.014 Q 71.923 31.893 72.08 31.84 L 72.72 31.04 Q 73.04 30.64 73.32 30.24 Q 73.64 29.84 73.94 29.48 Q 74.24 29.12 74.56 28.72 L 74.56 28.64 A 0.144 0.144 0 0 1 74.569 28.597 Q 74.604 28.495 74.768 28.238 A 7.315 7.315 0 0 1 74.78 28.22 Q 75 27.88 75.26 27.56 A 4.229 4.229 0 0 1 75.351 27.452 Q 75.524 27.253 75.592 27.241 A 0.048 0.048 0 0 1 75.6 27.24 Q 75.637 27.277 75.64 27.418 A 1.18 1.18 0 0 1 75.64 27.44 A 0.994 0.994 0 0 1 75.638 27.503 Q 75.632 27.596 75.607 27.631 A 0.066 0.066 0 0 1 75.6 27.64 Q 75.416 28.038 75.092 28.682 A 82.975 82.975 0 0 1 74.88 29.1 A 24.651 24.651 0 0 1 74.272 30.22 A 20.821 20.821 0 0 1 73.9 30.84 A 4.513 4.513 0 0 1 73.662 31.188 Q 73.404 31.524 73.164 31.67 A 0.801 0.801 0 0 1 72.96 31.76 A 2.688 2.688 0 0 1 72.891 31.918 Q 72.852 31.999 72.803 32.091 A 6.05 6.05 0 0 1 72.72 32.24 A 0.998 0.998 0 0 1 72.598 32.412 Q 72.503 32.517 72.389 32.572 A 0.593 0.593 0 0 1 72.32 32.6 A 0.495 0.495 0 0 1 72.237 32.705 A 0.333 0.333 0 0 1 72 32.8 A 1.345 1.345 0 0 1 71.946 32.927 Q 71.881 33.056 71.807 33.116 A 0.228 0.228 0 0 1 71.72 33.16 A 1.61 1.61 0 0 1 71.62 33.252 A 1.338 1.338 0 0 1 71.56 33.3 Q 71.494 33.349 71.455 33.385 A 0.548 0.548 0 0 0 71.44 33.4 A 0.33 0.33 0 0 1 71.378 33.522 Q 71.306 33.615 71.16 33.7 Q 70.945 33.825 70.795 33.902 A 3.902 3.902 0 0 1 70.76 33.92 Q 70.607 34.073 70.384 34.25 A 7.185 7.185 0 0 1 70.24 34.36 A 1.367 1.367 0 0 1 69.995 34.509 Q 69.816 34.591 69.637 34.599 A 0.854 0.854 0 0 1 69.6 34.6 L 69.48 34.6 L 69.36 34.56 L 69.28 34.56 Q 69.24 34.52 69.16 34.52 A 0.615 0.615 0 0 0 69.093 34.524 Q 68.978 34.537 68.767 34.589 A 6.948 6.948 0 0 0 68.72 34.6 A 5.893 5.893 0 0 1 68.581 34.633 Q 68.372 34.68 68.28 34.68 A 1.196 1.196 0 0 1 67.872 34.613 A 1.022 1.022 0 0 1 67.4 34.26 A 2.274 2.274 0 0 1 67.06 33.614 A 2.912 2.912 0 0 1 66.96 33.24 Q 66.84 32.64 66.84 32.2 A 9.56 9.56 0 0 1 67.284 29.356 A 10.877 10.877 0 0 1 67.38 29.06 A 17.09 17.09 0 0 1 68.292 26.88 A 14.944 14.944 0 0 1 68.68 26.16 A 4.077 4.077 0 0 1 68.967 25.712 A 3.462 3.462 0 0 1 69.12 25.52 Z M 91.52 31.08 L 91.6 31 Q 91.68 30.4 91.72 29.8 Q 91.76 29.2 91.76 28.56 A 0.849 0.849 0 0 1 91.834 28.219 A 1.205 1.205 0 0 1 91.96 28 L 91.96 27.96 Q 91.92 27.96 91.92 27.92 L 91.92 27.88 A 0.24 0.24 0 0 1 91.922 27.853 Q 91.928 27.8 91.96 27.8 Q 92 27.2 92.2 26.64 Q 92.52 25.64 92.88 24.7 Q 93.24 23.76 93.68 22.64 A 0.326 0.326 0 0 0 93.717 22.597 Q 93.774 22.516 93.739 22.434 A 0.214 0.214 0 0 0 93.72 22.4 L 93.64 22.24 A 1.346 1.346 0 0 1 93.709 21.827 Q 93.765 21.655 93.864 21.473 A 2.857 2.857 0 0 1 93.98 21.28 A 167.444 167.444 0 0 1 94.221 20.913 Q 94.41 20.625 94.56 20.4 Q 94.56 20.2 94.76 19.74 Q 94.96 19.28 95.18 18.84 A 10.751 10.751 0 0 1 95.258 18.688 Q 95.413 18.39 95.478 18.322 A 0.174 0.174 0 0 1 95.48 18.32 Q 95.167 18.398 95.218 18.266 A 0.164 0.164 0 0 1 95.22 18.26 A 0.483 0.483 0 0 1 95.247 18.205 Q 95.28 18.15 95.318 18.131 A 0.091 0.091 0 0 1 95.36 18.12 L 95.76 17.52 A 1.03 1.03 0 0 0 95.962 17.123 A 1.353 1.353 0 0 0 96 16.92 Q 96.08 16.6 96.2 16.28 Q 96.32 15.96 96.72 15.88 Q 96.786 15.814 96.908 15.802 A 0.563 0.563 0 0 1 96.96 15.8 Q 97.238 15.8 97.713 15.936 A 7.045 7.045 0 0 1 97.86 15.98 A 5.267 5.267 0 0 1 98.666 16.302 A 4.638 4.638 0 0 1 98.92 16.44 Q 99.4 16.72 99.4 17.04 Q 99.4 17.4 99.1 17.98 Q 98.8 18.56 98.44 19.2 L 97.68 20.4 Q 97.338 20.879 97.142 21.3 A 3.744 3.744 0 0 0 97.08 21.44 L 97 21.44 L 97 21.56 L 96.64 21.92 L 96.64 22.08 L 96.6 22.12 Q 96.56 22.4 96.48 22.7 A 1.724 1.724 0 0 1 96.287 23.148 A 2.056 2.056 0 0 1 96.2 23.28 L 95.96 23.24 A 3.857 3.857 0 0 1 95.914 23.337 Q 95.729 23.711 95.703 23.505 A 0.463 0.463 0 0 1 95.7 23.48 A 0.474 0.474 0 0 1 95.699 23.446 Q 95.699 23.223 95.895 22.861 A 3.819 3.819 0 0 1 96 22.68 L 95.92 22.56 A 8.199 8.199 0 0 0 95.792 22.829 Q 95.735 22.952 95.689 23.066 A 4.774 4.774 0 0 0 95.66 23.14 Q 95.568 23.381 95.595 23.708 A 1.978 1.978 0 0 0 95.6 23.76 L 95.6 23.72 L 95.64 23.76 L 95.48 23.84 L 95.36 24.24 L 95.28 24.48 Q 95.25 24.572 95.219 24.64 A 1.027 1.027 0 0 1 95.2 24.68 A 1.651 1.651 0 0 1 95.114 24.892 Q 94.971 25.18 94.76 25.24 L 94.8 25.48 L 94.68 25.84 Q 94.605 26.102 94.636 26.189 A 0.093 0.093 0 0 0 94.64 26.2 L 94.48 26.2 L 94.48 26.24 L 93.88 27.24 Q 93.92 27.28 93.92 27.36 A 0.862 0.862 0 0 1 93.905 27.512 Q 93.865 27.733 93.72 28.08 Q 93.499 28.491 93.428 28.752 A 1.054 1.054 0 0 0 93.4 28.88 Q 93.36 28.96 93.34 29.04 Q 93.321 29.118 93.358 29.27 A 1.365 1.365 0 0 0 93.36 29.28 L 93.32 29.24 A 0.17 0.17 0 0 0 93.332 29.301 A 0.209 0.209 0 0 0 93.34 29.32 L 93.36 29.36 L 93.36 29.52 A 2.814 2.814 0 0 1 93.335 29.909 Q 93.296 30.183 93.2 30.4 Q 93.04 30.84 93.04 31.32 A 1.763 1.763 0 0 0 93.053 31.528 Q 93.065 31.629 93.089 31.741 A 3.385 3.385 0 0 0 93.12 31.88 A 3.296 3.296 0 0 1 93.159 32.054 A 2.615 2.615 0 0 1 93.18 32.18 A 1.981 1.981 0 0 1 93.197 32.363 A 2.386 2.386 0 0 1 93.2 32.48 A 2.314 2.314 0 0 1 93.197 32.606 Q 93.191 32.722 93.172 32.8 A 0.506 0.506 0 0 1 93.16 32.84 A 0.352 0.352 0 0 0 93.131 32.924 Q 93.12 32.976 93.12 33.04 L 93.12 33.24 Q 93.12 33.548 93.492 33.875 A 2.185 2.185 0 0 0 93.52 33.9 A 2.113 2.113 0 0 0 93.739 34.064 Q 93.995 34.23 94.214 34.239 A 0.612 0.612 0 0 0 94.24 34.24 Q 94.635 34.24 94.84 34.132 A 0.502 0.502 0 0 0 94.92 34.08 Q 94.975 34.026 95.057 33.962 A 2.674 2.674 0 0 1 95.14 33.9 Q 95.28 33.8 95.44 33.72 L 95.64 33.32 L 95.64 33.8 L 95.6 33.84 Q 95.451 34.167 95.059 34.45 A 3.15 3.15 0 0 1 94.76 34.64 A 4.02 4.02 0 0 1 94.398 34.822 Q 94.018 34.987 93.724 34.999 A 1.113 1.113 0 0 1 93.68 35 A 1.623 1.623 0 0 1 93.264 34.949 A 1.182 1.182 0 0 1 92.72 34.64 A 6.622 6.622 0 0 1 92.121 33.949 A 7.35 7.35 0 0 1 92.04 33.84 L 92.1 33.72 L 92.12 33.68 Q 92.12 33.643 92.051 33.571 A 0.834 0.834 0 0 0 92.04 33.56 Q 91.72 33 91.64 32.34 A 24.473 24.473 0 0 1 91.546 31.422 A 21.031 21.031 0 0 1 91.52 31.08 Z M 79.76 11.6 L 80.24 11.24 L 80.28 11.4 Q 80.28 11.623 79.831 12.002 A 4.405 4.405 0 0 1 79.76 12.06 A 7.96 7.96 0 0 1 79.532 12.238 Q 79.209 12.48 79.028 12.55 A 0.617 0.617 0 0 1 79 12.56 A 0.706 0.706 0 0 1 78.985 12.588 Q 78.92 12.704 78.64 13.156 A 106.192 106.192 0 0 1 78.6 13.22 A 19.956 19.956 0 0 1 78.232 13.79 Q 78.034 14.086 77.806 14.408 A 32.785 32.785 0 0 1 77.74 14.5 Q 77.24 15.2 76.78 15.74 A 5.2 5.2 0 0 1 76.617 15.924 Q 76.283 16.28 76.12 16.28 Q 75.52 16.28 75.18 15.74 A 2.454 2.454 0 0 1 74.96 15.305 A 1.751 1.751 0 0 1 74.84 14.68 Q 76.04 13.8 77.26 12.94 A 11.513 11.513 0 0 1 79.084 11.882 A 10.166 10.166 0 0 1 79.76 11.6 Z M 58.44 32.2 L 58.4 32.2 Q 58.47 32.304 58.812 32.454 A 4.818 4.818 0 0 0 58.92 32.5 Q 59.36 32.68 59.8 32.82 A 29.428 29.428 0 0 0 59.904 32.853 Q 60.241 32.959 60.279 32.96 A 0.027 0.027 0 0 0 60.28 32.96 A 0.096 0.096 0 0 0 60.37 32.901 Q 60.4 32.841 60.4 32.72 A 0.447 0.447 0 0 0 60.396 32.665 Q 60.389 32.606 60.368 32.527 A 1.799 1.799 0 0 0 60.36 32.5 A 0.418 0.418 0 0 0 60.342 32.447 Q 60.303 32.36 60.24 32.36 Q 60.04 32.36 59.8 32.34 Q 59.56 32.32 59.36 32.28 Q 59.12 32.24 58.88 32.22 Q 58.64 32.2 58.44 32.2 Z M 28.36 19.8 L 27.48 19.68 Q 27.6 19.76 27.76 19.84 A 0.919 0.919 0 0 1 27.84 19.859 Q 27.969 19.898 28 19.96 A 0.135 0.135 0 0 1 28.096 19.92 A 0.177 0.177 0 0 1 28.1 19.92 A 0.148 0.148 0 0 0 28.153 19.911 A 0.133 0.133 0 0 0 28.2 19.88 A 0.18 0.18 0 0 1 28.225 19.859 Q 28.239 19.849 28.254 19.844 A 0.084 0.084 0 0 1 28.28 19.84 Q 28.32 19.84 28.36 19.8 Z M 9.76 9.4 L 9.64 9.4 Q 9.6 9.4 9.56 9.36 L 9.84 9.16 L 10.12 9.24 A 0.388 0.388 0 0 1 9.873 9.39 A 0.6 0.6 0 0 1 9.76 9.4 Z M 85.6 29.4 Q 85.68 29.32 85.74 29.22 Q 85.8 29.12 85.88 29 Q 85.84 29 85.68 29.08 L 85.6 29.24 A 0.193 0.193 0 0 0 85.584 29.285 Q 85.571 29.343 85.6 29.4 Z M 78.76 26.84 L 78.8 26.84 A 1.636 1.636 0 0 0 78.861 26.776 Q 78.916 26.714 78.946 26.666 A 0.358 0.358 0 0 0 78.96 26.64 L 79 26.6 L 78.92 26.44 Q 78.88 26.56 78.84 26.66 Q 78.8 26.76 78.76 26.84 Z M 54.84 32.48 L 54.92 32.56 A 0.565 0.565 0 0 1 54.922 32.508 Q 54.93 32.431 54.96 32.4 L 55.04 32.28 L 54.88 32.32 L 54.92 32.32 L 54.8 32.52 L 54.84 32.48 Z" vector-effect="non-scaling-stroke"/></g></svg>